<?xml version="1.0" standalone="no"?><!DOCTYPE svg PUBLIC "-//W3C//DTD SVG 1.1//EN" "http://www.w3.org/Graphics/SVG/1.1/DTD/svg11.dtd"><svg t="1514370164849" class="icon" style="" viewBox="0 0 1024 1024" version="1.1" xmlns="http://www.w3.org/2000/svg" p-id="1006" xmlns:xlink="http://www.w3.org/1999/xlink" width="200" height="200"><defs><style type="text/css"></style></defs><path d="M578.432 512 1010.2416 80.1904c18.344-18.344 18.344-48.088 0-66.432-18.3456-18.344-48.088-18.344-66.432 0L512 445.568 80.1904 13.7584c-18.344-18.344-48.088-18.344-66.432 0-18.344 18.3456-18.344 48.088 0 66.432L445.568 512 13.7584 943.8096c-18.344 18.344-18.344 48.088 0 66.432 18.3456 18.344 48.088 18.344 66.432 0L512 578.432l431.8096 431.8096c18.344 18.344 48.088 18.344 66.432 0 18.344-18.3456 18.344-48.088 0-66.432L578.432 512z" p-id="1007" fill="#ffffff"></path></svg>