<?xml version="1.0" standalone="no"?><!DOCTYPE svg PUBLIC "-//W3C//DTD SVG 1.1//EN" "http://www.w3.org/Graphics/SVG/1.1/DTD/svg11.dtd"><svg t="1514431275046" class="icon" style="" viewBox="0 0 1024 1024" version="1.1" xmlns="http://www.w3.org/2000/svg" p-id="1868" xmlns:xlink="http://www.w3.org/1999/xlink" width="200" height="200"><defs><style type="text/css"></style></defs><path d="M679.776679 382.064672 642.588709 344.844979 512.413927 475.018737 382.241192 344.844979l-37.190017 37.21867 130.158409 130.158409L345.051175 642.380466l37.190017 37.21867L512.413927 549.427424 642.588709 679.599136l37.187971-37.21867L549.619294 512.222057 679.776679 382.064672zM679.776679 382.064672" p-id="1869" fill="#ffffff"></path><path d="M512.429277 959.288163c-246.944252 0-447.094758-200.173019-447.094758-447.065082 0-246.890017 200.149483-447.064059 447.094758-447.064059 246.89104 0 447.065082 200.174042 447.065082 447.064059C959.494359 759.114121 759.319294 959.288163 512.429277 959.288163L512.429277 959.288163zM512.429277 145.491629c-208.090339 0-376.776226 168.738076-376.776226 376.775202 0 208.144574 168.685887 376.771109 376.776226 376.771109 208.060663 0 376.723014-168.626535 376.723014-376.771109C889.151267 314.229704 720.48994 145.491629 512.429277 145.491629L512.429277 145.491629zM512.429277 145.491629" p-id="1870" fill="#ffffff"></path></svg>